<svg width="28" height="29" viewBox="0 0 28 29" fill="none" xmlns="http://www.w3.org/2000/svg">
<path d="M14.0031 6.89005C10.0303 6.89005 6.82588 10.1276 6.82588 14.1414C6.82588 18.1552 10.0303 21.3928 14.0031 21.3928C17.9759 21.3928 21.1804 18.1552 21.1804 14.1414C21.1804 10.1276 17.9759 6.89005 14.0031 6.89005ZM14.0031 18.8557C11.4358 18.8557 9.33698 16.7416 9.33698 14.1414C9.33698 11.5413 11.4296 9.42708 14.0031 9.42708C16.5767 9.42708 18.6693 11.5413 18.6693 14.1414C18.6693 16.7416 16.5704 18.8557 14.0031 18.8557ZM23.148 6.59344C23.148 7.53378 22.3984 8.28479 21.474 8.28479C20.5432 8.28479 19.7999 7.52747 19.7999 6.59344C19.7999 5.65941 20.5495 4.90208 21.474 4.90208C22.3984 4.90208 23.148 5.65941 23.148 6.59344ZM27.9016 8.31003C27.7954 6.04438 27.2832 4.03747 25.6404 2.38399C24.0038 0.7305 22.0174 0.212997 19.7749 0.0993986C17.4637 -0.0331327 10.5363 -0.0331327 8.2251 0.0993986C5.98885 0.206686 4.00245 0.724189 2.35962 2.37768C0.716788 4.03116 0.21082 6.03807 0.0983826 8.30372C-0.0327942 10.6388 -0.0327942 17.6377 0.0983826 19.9728C0.204573 22.2384 0.716788 24.2454 2.35962 25.8988C4.00245 27.5523 5.9826 28.0698 8.2251 28.1834C10.5363 28.316 17.4637 28.316 19.7749 28.1834C22.0174 28.0761 24.0038 27.5586 25.6404 25.8988C27.277 24.2454 27.7892 22.2384 27.9016 19.9728C28.0328 17.6377 28.0328 10.6451 27.9016 8.31003ZM24.9158 22.4783C24.4286 23.7152 23.4853 24.6682 22.2548 25.1668C20.412 25.9052 16.0395 25.7348 14.0031 25.7348C11.9668 25.7348 7.58795 25.8988 5.75148 25.1668C4.52716 24.6745 3.58394 23.7215 3.09046 22.4783C2.35962 20.6165 2.52828 16.1988 2.52828 14.1414C2.52828 12.084 2.36587 7.66 3.09046 5.80456C3.57769 4.5676 4.52091 3.61464 5.75148 3.11607C7.5942 2.37768 11.9668 2.54807 14.0031 2.54807C16.0395 2.54807 20.4183 2.38399 22.2548 3.11607C23.4791 3.60832 24.4223 4.56129 24.9158 5.80456C25.6466 7.66631 25.478 12.084 25.478 14.1414C25.478 16.1988 25.6466 20.6228 24.9158 22.4783Z" transform="translate(0 0.101074)" fill="#2D2D2D"/>
</svg>
