<?xml version="1.0" encoding="utf-8"?><svg xmlns="http://www.w3.org/2000/svg" xmlns:xlink="http://www.w3.org/1999/xlink"><symbol viewBox="0 0 27 24" id="Basket" xmlns="http://www.w3.org/2000/svg"><path d="M.887 8.846c-1.183 0-1.183 2.392 0 2.392h.788l1.183 10.768C3.137 23.308 3.252 24 4.828 24h16.95c1.182 0 1.736-.524 1.97-1.994l1.577-10.768h.788c1.183 0 1.183-2.392 0-2.392h-3.941L17.836.87c-.789-1.596-3.153-.798-2.365.797l3.547 7.179H7.982l3.547-7.179C12.318.072 9.953-.726 9.164.87L4.83 8.846H.887z"/><path d="M6.405 12.238a1 1 0 0 1 1-1h.365a1 1 0 0 1 1 1v8.37a1 1 0 0 1-1 1h-.365a1 1 0 0 1-1-1v-8.37zm3.942 0a1 1 0 0 1 1-1h.365a1 1 0 0 1 1 1v8.37a1 1 0 0 1-1 1h-.365a1 1 0 0 1-1-1v-8.37zm3.941 0a1 1 0 0 1 1-1h.365a1 1 0 0 1 1 1v8.37a1 1 0 0 1-1 1h-.365a1 1 0 0 1-1-1v-8.37zm3.942 0a1 1 0 0 1 1-1h.365a1 1 0 0 1 1 1v8.37a1 1 0 0 1-1 1h-.365a1 1 0 0 1-1-1v-8.37z"/></symbol><symbol viewBox="0 0 24 24" id="globe" xmlns="http://www.w3.org/2000/svg"><path d="M16.285 7.355C15.584 3.034 13.93 0 12.002 0 10.076 0 8.421 3.034 7.72 7.355h8.566zM7.356 12c0 1.074.058 2.105.16 3.097h8.968a30.334 30.334 0 0 0 0-6.194H7.516c-.102.992-.16 2.023-.16 3.097zm15.715-4.645A12.027 12.027 0 0 0 15.424.503c1.181 1.636 1.994 4.099 2.42 6.852h5.227zM8.576.503A12.019 12.019 0 0 0 .934 7.355h5.227C6.582 4.602 7.395 2.139 8.576.503zm15.013 8.4h-5.551c.101 1.016.16 2.057.16 3.097s-.059 2.08-.16 3.097h5.546C23.85 14.105 24 13.074 24 12a12.1 12.1 0 0 0-.411-3.097zM5.808 12c0-1.04.058-2.08.16-3.097H.415A12.104 12.104 0 0 0 0 12c0 1.074.155 2.105.416 3.097h5.546A32.761 32.761 0 0 1 5.808 12zm1.911 4.645C8.421 20.966 10.076 24 12.002 24c1.927 0 3.582-3.034 4.283-7.355H7.72zm7.71 6.852a12.038 12.038 0 0 0 7.647-6.852h-5.227c-.426 2.753-1.24 5.216-2.42 6.852zM.934 16.645a12.027 12.027 0 0 0 7.647 6.852C7.4 21.86 6.587 19.398 6.16 16.645H.934z"/></symbol><symbol viewBox="0 0 24 24" id="user" xmlns="http://www.w3.org/2000/svg"><path d="M19.843 13.642l-.989-.283a8.414 8.414 0 0 0 1.584-4.921A8.437 8.437 0 0 0 12 0a8.437 8.437 0 0 0-8.438 8.438c0 1.045.197 2.994 1.584 4.921l-.989.283C.997 14.545 0 17.418 0 19.153v1.204A3.647 3.647 0 0 0 3.643 24h16.714A3.647 3.647 0 0 0 24 20.357v-1.204c0-1.699-.971-4.6-4.157-5.511zM12 2.25a6.187 6.187 0 1 1 0 12.375A6.187 6.187 0 0 1 12 2.25zm9.75 18.107c0 .77-.624 1.393-1.393 1.393H3.643c-.77 0-1.393-.624-1.393-1.393v-1.204a3.482 3.482 0 0 1 2.526-3.348l2.16-.617A8.416 8.416 0 0 0 12 16.875a8.416 8.416 0 0 0 5.063-1.687l2.162.617a3.482 3.482 0 0 1 2.525 3.348v1.204z"/></symbol></svg>