<?xml version="1.0" encoding="utf-8"?><svg xmlns="http://www.w3.org/2000/svg" xmlns:xlink="http://www.w3.org/1999/xlink"><symbol viewBox="0 0 14 29" id="facebook" xmlns="http://www.w3.org/2000/svg"><path d="M4.067 28.384v-12.65H0v-5.027h4.067v-3.96C4.067 2.442 6.592.1 10.277.1 12.043.101 13.56.24 14 .3v4.496h-2.556c-2.005 0-2.392.995-2.392 2.448v3.463h4.524l-.62 5.027H9.051v12.65"/></symbol><symbol viewBox="0 0 28 29" id="insta" xmlns="http://www.w3.org/2000/svg"><path d="M14.003 6.991c-3.973 0-7.177 3.238-7.177 7.251 0 4.014 3.204 7.252 7.177 7.252 3.973 0 7.177-3.238 7.177-7.252 0-4.013-3.204-7.25-7.177-7.25zm0 11.966c-2.567 0-4.666-2.114-4.666-4.715 0-2.6 2.093-4.714 4.666-4.714 2.574 0 4.666 2.114 4.666 4.714 0 2.6-2.099 4.715-4.666 4.715zm9.145-12.262c0 .94-.75 1.69-1.674 1.69-.93 0-1.674-.756-1.674-1.69 0-.935.75-1.692 1.674-1.692.924 0 1.674.757 1.674 1.692zm4.754 1.716c-.107-2.266-.619-4.272-2.262-5.926C24.004.832 22.017.315 19.775.2 17.464.068 10.536.068 8.225.2 5.99.308 4.002.825 2.36 2.48.717 4.132.21 6.139.098 8.405c-.13 2.335-.13 9.334 0 11.669C.205 22.339.717 24.346 2.36 26c1.642 1.653 3.623 2.17 5.865 2.284 2.311.133 9.239.133 11.55 0 2.242-.107 4.229-.624 5.865-2.284 1.637-1.654 2.15-3.66 2.262-5.926.13-2.335.13-9.328 0-11.663zM24.916 22.58a4.75 4.75 0 0 1-2.661 2.689c-1.843.738-6.215.568-8.252.568-2.036 0-6.415.164-8.252-.568a4.75 4.75 0 0 1-2.66-2.689c-.731-1.861-.563-6.28-.563-8.337 0-2.057-.162-6.48.562-8.336a4.749 4.749 0 0 1 2.661-2.689c1.843-.738 6.216-.568 8.252-.568 2.037 0 6.415-.164 8.252.568a4.749 4.749 0 0 1 2.66 2.689c.732 1.861.563 6.28.563 8.336 0 2.058.169 6.482-.562 8.337z"/></symbol><symbol viewBox="0 0 28 23" id="twitter" xmlns="http://www.w3.org/2000/svg"><path d="M25.122 5.67c.018.243.018.486.018.729 0 7.413-5.774 15.955-16.328 15.955-3.251 0-6.271-.92-8.812-2.518.462.052.906.07 1.386.07 2.682 0 5.152-.886 7.124-2.396-2.523-.052-4.637-1.667-5.365-3.89.355.053.71.088 1.083.088.516 0 1.03-.07 1.51-.191-2.629-.521-4.601-2.778-4.601-5.504v-.07a5.882 5.882 0 0 0 2.594.713C2.185 7.649 1.173 5.93 1.173 3.986c0-1.042.284-1.997.781-2.83C4.78 4.558 9.025 6.78 13.787 7.024a6.193 6.193 0 0 1-.142-1.285c0-3.09 2.558-5.608 5.738-5.608 1.652 0 3.145.677 4.193 1.771A11.46 11.46 0 0 0 27.218.548a5.618 5.618 0 0 1-2.523 3.09A11.716 11.716 0 0 0 28 2.77a12.186 12.186 0 0 1-2.878 2.9z"/></symbol></svg>