<svg width="28" height="23" viewBox="0 0 28 23" fill="none" xmlns="http://www.w3.org/2000/svg">
<path d="M25.1219 5.53817C25.1397 5.78122 25.1397 6.02431 25.1397 6.26736C25.1397 13.6805 19.3656 22.2222 8.81221 22.2222C5.56092 22.2222 2.54063 21.302 0 19.7049C0.461947 19.7569 0.906066 19.7743 1.38579 19.7743C4.06849 19.7743 6.53808 18.8889 8.51017 17.3785C5.98732 17.3264 3.87309 15.7118 3.14465 13.4896C3.50001 13.5416 3.85532 13.5764 4.22845 13.5764C4.74367 13.5764 5.25893 13.5069 5.7386 13.3854C3.10916 12.8645 1.13701 10.6076 1.13701 7.88193V7.81252C1.90094 8.22919 2.78935 8.4896 3.73091 8.52428C2.18521 7.51731 1.17256 5.79859 1.17256 3.85413C1.17256 2.81248 1.45677 1.85762 1.95427 1.02428C4.77916 4.42705 9.02539 6.64924 13.7868 6.89234C13.698 6.47567 13.6446 6.04168 13.6446 5.60765C13.6446 2.51733 16.203 3.91404e-08 19.3832 3.91404e-08C21.0355 3.91404e-08 22.5279 0.677082 23.5761 1.77083C24.8731 1.52779 26.1167 1.05902 27.2183 0.41667C26.7918 1.71878 25.8858 2.81253 24.6954 3.50693C25.8503 3.38546 26.9696 3.07289 28 2.63891C27.2184 3.74997 26.2412 4.73952 25.1219 5.53817Z" transform="translate(0 0.131348)" fill="#2D2D2D"/>
</svg>
